<svg id="Groupe_10" data-name="Groupe 10" xmlns="http://www.w3.org/2000/svg" xmlns:xlink="http://www.w3.org/1999/xlink" width="43.389" height="43.452" viewBox="0 0 43.389 43.452">
  <defs>
    <clipPath id="clip-path">
      <rect id="Rectangle_20" data-name="Rectangle 20" width="43.389" height="43.452" fill="#b1dbda"/>
    </clipPath>
  </defs>
  <g id="Groupe_9" data-name="Groupe 9" clip-path="url(#clip-path)">
    <path id="Tracé_1" data-name="Tracé 1" d="M15.187,3.86,11.876.549A1.676,1.676,0,0,0,9.514.433L.434,9.514a1.676,1.676,0,0,0,.115,2.361L3.86,15.187a1.118,1.118,0,0,0,1.574.077l9.829-9.829a1.117,1.117,0,0,0-.077-1.574" transform="translate(0 0)" fill="#b1dbda"/>
    <path id="Tracé_2" data-name="Tracé 2" d="M34.065,25.3,29.15,30.214l-4.915,4.915a1.059,1.059,0,0,0,0,1.5L45.752,58.143a1.8,1.8,0,0,0,.839.475l12.746,3.168a1.324,1.324,0,0,0,1.6-1.629L57.558,47.635a1.8,1.8,0,0,0-.466-.805L35.562,25.3a1.059,1.059,0,0,0-1.5,0M55.5,49.37l2.212,8.205a.867.867,0,0,1-1.046,1.067l-8.352-2.076s-.148-.047-.218-.08l7.324-7.324a1.176,1.176,0,0,1,.08.208" transform="translate(-17.592 -18.375)" fill="#b1dbda"/>
  </g>
</svg>
