<svg xmlns="http://www.w3.org/2000/svg" width="114" height="44" viewBox="0 0 114 44">
  <g id="Tracé_51" data-name="Tracé 51" fill="none">
    <path d="M22,0H92a22,22,0,0,1,0,44H22A22,22,0,0,1,22,0Z" stroke="none"/>
    <path d="M 22 5 C 17.45913696289062 5 13.1900634765625 6.768299102783203 9.979179382324219 9.979179382324219 C 6.768302917480469 13.19005966186523 5 17.45914077758789 5 22 C 5 26.54085922241211 6.768302917480469 30.80994033813477 9.979179382324219 34.02082061767578 C 13.1900634765625 37.2317008972168 17.45913696289062 39 22 39 L 92 39 C 96.54086303710938 39 100.8099365234375 37.2317008972168 104.0208206176758 34.02082061767578 C 107.2316970825195 30.80994033813477 109 26.54085922241211 109 22 C 109 17.45914077758789 107.2316970825195 13.19005966186523 104.0208206176758 9.979179382324219 C 100.8099365234375 6.768299102783203 96.54086303710938 5 92 5 L 22 5 M 22 0 L 92 0 C 104.150260925293 0 114 9.849739074707031 114 22 C 114 34.15026092529297 104.150260925293 44 92 44 L 22 44 C 9.849716186523438 44 0 34.15026092529297 0 22 C 0 9.849739074707031 9.849716186523438 0 22 0 Z" stroke="none" fill="#a2baef"/>
  </g>
</svg>
