<svg xmlns="http://www.w3.org/2000/svg" width="64" height="64" viewBox="0 0 64 64">
  <g fill="none" fill-rule="evenodd">
    <path fill="#B3B3B3" fill-rule="nonzero" d="M41.421,2 C43.0894515,2 44.6943626,2.6204474 45.9285022,3.73450199 L46.1423802,3.93619799 L53.9995217,11.6893377 C55.2087277,12.8830126 55.9182552,14.4855856 55.9933594,16.1750271 L56,16.474 L56,20.991044 C56,21.5433288 55.5522847,21.991044 55,21.991044 C54.4871642,21.991044 54.0644928,21.6050038 54.0067277,21.1076651 L54,20.991044 L54,16.474 C54,15.2947582 53.5593823,14.1623506 52.7692503,13.2946149 L52.5946198,13.112802 L44.7382347,5.3604082 C43.9123767,4.54688794 42.8195611,4.06687213 41.6684768,4.00648567 L41.421,4 L15.201,4 C12.9515792,4 11.1144199,5.76899503 11.0051425,7.99136474 L11,8.201 L11,54.834 C11,57.063642 12.7714595,58.8864705 15.0025306,58.9948975 L15.213,59 L49.799,59 C52.0484208,59 53.8855801,57.231005 53.9948575,55.0086353 L54,54.799 L54,44.1159317 C54,43.5636469 54.4477153,43.1159317 55,43.1159317 C55.5128358,43.1159317 55.9355072,43.5019719 55.9932723,43.9993106 L56,44.1159317 L56,54.799 C56,58.1471895 53.3453231,60.8762706 50.0263029,60.9959097 L49.799,61 L15.213,61 C11.85964,61 9.12402696,58.3632356 9.00410014,55.0602152 L9,54.834 L9,8.201 C9,4.85281047 11.6546769,2.12372935 14.9736971,2.00409029 L15.201,2 L41.421,2 Z"/>
    <path fill="#B3B3B3" fill-rule="nonzero" d="M29.8985498 19.3810161L29.8985498 21.4444368 27.8545953 21.4444368C26.3167629 21.4444368 25.5381136 21.7169641 25.5381136 22.8460056 25.5381136 23.3131952 25.6159785 23.799851 25.7133097 24.3059731 25.7522422 24.8120951 25.8495733 25.3571497 25.8495733 25.9606029 25.8690396 27.5763002 24.4480045 28.2965508 23.1826994 28.5690781 24.4480045 28.8416054 25.8690396 29.5813222 25.8495733 31.1970196 25.8495733 31.819939 25.7522422 32.3649935 25.7133097 32.8711156 25.6159785 33.3772377 25.5381136 33.8638935 25.5381136 34.3310831 25.5381136 35.2265298 26.5308915 35.7326519 27.8545953 35.7326519L29.8985498 35.7326519 29.8985498 37.7960726 26.9786148 37.7960726C24.8567954 37.7960726 23.318963 36.9590245 23.318963 34.6230766 23.318963 34.0585558 23.396828 33.4161701 23.4941591 32.7932507 23.5720241 32.1703312 23.6693552 31.819939 23.6693552 31.2164858 23.6693552 30.5546339 21.4112722 29.6397209 19.6982437 29.6007885L19.6982437 27.5763002C21.4112722 27.5373678 23.7472202 26.7392522 23.7472202 25.9995354 23.7472202 25.3960821 23.5720241 24.967825 23.4941591 24.3449055 23.396828 23.7025199 23.318963 23.0796004 23.318963 22.4761472 23.318963 20.3153953 24.7983967 19.3810161 26.9786148 19.3810161L29.8985498 19.3810161zM36.9360604 19.3513629C39.1162785 19.3513629 40.5957122 20.2857421 40.5957122 22.446494 40.5957122 23.0499472 40.5178472 23.6728666 40.4205161 24.3152523 40.3426511 24.9381718 40.167455 25.3664289 40.167455 25.9698821 40.167455 26.709599 42.503403 27.5077145 44.2164315 27.546647L44.2164315 27.546647 44.2164315 29.5711352C42.503403 29.6100677 40.24532 30.5249807 40.24532 31.1868326 40.24532 31.7902858 40.3426511 32.140678 40.4205161 32.7635975 40.5178472 33.3865169 40.5957122 34.0289026 40.5957122 34.5934234 40.5957122 36.9293713 39.0578798 37.7664193 36.9360604 37.7664193L36.9360604 37.7664193 34.0161254 37.7664193 34.0161254 35.7029986 36.0600799 35.7029986C37.3837837 35.7029986 38.3765616 35.1968766 38.3765616 34.3014299 38.3765616 33.8342403 38.2986967 33.3475844 38.2013655 32.8414624 38.162433 32.3353403 38.0651019 31.7902858 38.0651019 31.1673663 38.0456356 29.551669 39.4666707 28.8119522 40.7319758 28.5394249 39.4666707 28.2668976 38.0456356 27.546647 38.0651019 25.9309497 38.0651019 25.3274964 38.162433 24.7824419 38.2013655 24.2763199 38.2986967 23.7701978 38.3765616 23.283542 38.3765616 22.8163524 38.3765616 21.6873109 37.5979123 21.4147836 36.0600799 21.4147836L36.0600799 21.4147836 34.0161254 21.4147836 34.0161254 19.3513629zM55 24.5C55.5128358 24.5 55.9355072 24.8860402 55.9932723 25.3833789L56 25.5 56 31 61.5 31C62.0522847 31 62.5 31.4477153 62.5 32 62.5 32.5128358 62.1139598 32.9355072 61.6166211 32.9932723L61.5 33 56 33 56 39.5C56 40.0522847 55.5522847 40.5 55 40.5 54.4871642 40.5 54.0644928 40.1139598 54.0067277 39.6166211L54 39.5 54 33 47.5 33C46.9477153 33 46.5 32.5522847 46.5 32 46.5 31.4871642 46.8860402 31.0644928 47.3833789 31.0067277L47.5 31 54 31 54 25.5C54 24.9477153 54.4477153 24.5 55 24.5z"/>
  </g>
</svg>
