<svg xmlns="http://www.w3.org/2000/svg" width="91" height="44" viewBox="0 0 91 44">
  <g id="Tracé_6" data-name="Tracé 6" fill="none">
    <path d="M22,0H69a22,22,0,0,1,0,44H22A22,22,0,0,1,22,0Z" stroke="none"/>
    <path d="M 22 5 C 17.45913696289062 5 13.1900634765625 6.768299102783203 9.97918701171875 9.979183197021484 C 6.768302917480469 13.19006729125977 5 17.45913314819336 5 22 C 5 26.54086685180664 6.768302917480469 30.80993270874023 9.97918701171875 34.02081680297852 C 13.1900634765625 37.2317008972168 17.45913696289062 39 22 39 L 69 39 C 73.54086303710938 39 77.8099365234375 37.2317008972168 81.02081298828125 34.02081680297852 C 84.23169708251953 30.80993270874023 86 26.54086685180664 86 22 C 86 17.45913314819336 84.23169708251953 13.19006729125977 81.02081298828125 9.979183197021484 C 77.8099365234375 6.768299102783203 73.54086303710938 5 69 5 L 22 5 M 22 0 L 69 0 C 81.1502685546875 0 91 9.8497314453125 91 22 C 91 34.1502685546875 81.1502685546875 44 69 44 L 22 44 C 9.8497314453125 44 0 34.1502685546875 0 22 C 0 9.8497314453125 9.8497314453125 0 22 0 Z" stroke="none" fill="#a2baef"/>
  </g>
</svg>
