<svg xmlns="http://www.w3.org/2000/svg" width="105" height="44" viewBox="0 0 105 44">
  <g id="Tracé_51" data-name="Tracé 51" fill="none">
    <path d="M22,0H83a22,22,0,0,1,0,44H22A22,22,0,0,1,22,0Z" stroke="none"/>
    <path d="M 22 5 C 17.45912933349609 5 13.19005584716797 6.768310546875 9.979179382324219 9.979183197021484 C 6.768310546875 13.19005393981934 5 17.45912742614746 5 22 C 5 26.54087257385254 6.768310546875 30.80994415283203 9.979179382324219 34.02081680297852 C 13.19005584716797 37.231689453125 17.45912933349609 39 22 39 L 83 39 C 87.54087066650391 39 91.80994415283203 37.231689453125 95.02082061767578 34.02081680297852 C 98.231689453125 30.80994415283203 100 26.54087257385254 100 22 C 100 17.45912742614746 98.231689453125 13.19005393981934 95.02082061767578 9.979183197021484 C 91.80994415283203 6.768310546875 87.54087066650391 5 83 5 L 22 5 M 22 0 L 83 0 C 95.1502685546875 0 105 9.849727630615234 105 22 C 105 34.15027236938477 95.1502685546875 44 83 44 L 22 44 C 9.849723815917969 44 0 34.15027236938477 0 22 C 0 9.849727630615234 9.849723815917969 0 22 0 Z" stroke="none" fill="#a2baef"/>
  </g>
</svg>
